<?xml version="1.0" encoding="UTF-8" standalone="no" ?>
<!DOCTYPE svg PUBLIC "-//W3C//DTD SVG 1.1//EN" "http://www.w3.org/Graphics/SVG/1.1/DTD/svg11.dtd">
<svg xmlns="http://www.w3.org/2000/svg" xmlns:xlink="http://www.w3.org/1999/xlink" version="1.1" width="400" height="400" viewBox="0 0 400 400" xml:space="preserve">
<desc>Created with Fabric.js 3.6.2</desc>
<defs>
</defs>
<g transform="matrix(11.11 0 0 11.11 200 200)"  >
<path style="stroke: none; stroke-width: 1; stroke-dasharray: none; stroke-linecap: butt; stroke-dashoffset: 0; stroke-linejoin: miter; stroke-miterlimit: 4; fill: rgb(0,0,0); fill-rule: nonzero; opacity: 1;"  transform=" translate(-12, -12)" d="M 20 3 H 4 a 1 1 0 0 0 -1 1 v 16 a 1 1 0 0 0 1 1 h 16 a 1 1 0 0 0 1 -1 V 4 a 1 1 0 0 0 -1 -1 z M 8.339 18.337 H 5.667 v -8.59 h 2.672 v 8.59 z M 7.003 8.574 a 1.548 1.548 0 1 1 0 -3.096 a 1.548 1.548 0 0 1 0 3.096 z m 11.335 9.763 h -2.669 V 14.16 c 0 -0.996 -0.018 -2.277 -1.388 -2.277 c -1.39 0 -1.601 1.086 -1.601 2.207 v 4.248 h -2.667 v -8.59 h 2.56 v 1.174 h 0.037 c 0.355 -0.675 1.227 -1.387 2.524 -1.387 c 2.704 0 3.203 1.778 3.203 4.092 v 4.71 z" stroke-linecap="round" />
</g>
</svg>