<?xml version="1.0" encoding="UTF-8" standalone="no" ?>
<!DOCTYPE svg PUBLIC "-//W3C//DTD SVG 1.1//EN" "http://www.w3.org/Graphics/SVG/1.1/DTD/svg11.dtd">
<svg xmlns="http://www.w3.org/2000/svg" xmlns:xlink="http://www.w3.org/1999/xlink" version="1.1" width="400" height="400" viewBox="0 0 400 400" xml:space="preserve">
<desc>Created with Fabric.js 3.6.2</desc>
<defs>
</defs>
<g transform="matrix(10.18 0 0 10.18 200 200)"  >
<path style="stroke: none; stroke-width: 1; stroke-dasharray: none; stroke-linecap: butt; stroke-dashoffset: 0; stroke-linejoin: miter; stroke-miterlimit: 4; fill: rgb(0,0,0); fill-rule: nonzero; opacity: 1;"  transform=" translate(-11.83, -12)" d="M 19.633 7.997 c 0.013 0.175 0.013 0.349 0.013 0.523 c 0 5.325 -4.053 11.461 -11.46 11.461 c -2.282 0 -4.402 -0.661 -6.186 -1.809 c 0.324 0.037 0.636 0.05 0.973 0.05 a 8.07 8.07 0 0 0 5.001 -1.721 a 4.036 4.036 0 0 1 -3.767 -2.793 c 0.249 0.037 0.499 0.062 0.761 0.062 c 0.361 0 0.724 -0.05 1.061 -0.137 a 4.027 4.027 0 0 1 -3.23 -3.953 v -0.05 c 0.537 0.299 1.16 0.486 1.82 0.511 a 4.022 4.022 0 0 1 -1.796 -3.354 c 0 -0.748 0.199 -1.434 0.548 -2.032 a 11.457 11.457 0 0 0 8.306 4.215 c -0.062 -0.3 -0.1 -0.611 -0.1 -0.923 a 4.026 4.026 0 0 1 4.028 -4.028 c 1.16 0 2.207 0.486 2.943 1.272 a 7.957 7.957 0 0 0 2.556 -0.973 a 4.02 4.02 0 0 1 -1.771 2.22 a 8.073 8.073 0 0 0 2.319 -0.624 a 8.645 8.645 0 0 1 -2.019 2.083 z" stroke-linecap="round" />
</g>
</svg>